<svg width="100" height="105" viewBox="0 0 100 105" fill="none" xmlns="http://www.w3.org/2000/svg">
<path d="M38.809 98.801C38.3066 99.9509 38.7656 101.259 39.6442 102.087C40.1164 102.544 40.7086 102.857 41.3521 102.991C41.9956 103.124 42.6639 103.073 43.2793 102.842C44.6759 102.352 45.7389 101.079 46.2673 99.732C46.8629 98.2131 46.7611 96.5581 46.688 94.9628C46.5889 92.8018 46.597 90.6323 46.5616 88.4694C46.5221 86.0569 46.482 83.6446 46.4415 81.2322C46.3488 75.8066 46.2419 70.3814 46.1209 64.9564C45.9944 59.5283 45.8342 54.1011 45.6402 48.6748C45.4722 44.2588 45.2798 39.8407 44.9419 35.4341C44.9087 35.0011 44.8736 34.5682 44.8365 34.1354C44.8107 33.9822 44.7258 33.8453 44.6 33.7541C44.4743 33.6629 44.3177 33.6247 44.164 33.6477C44.0115 33.675 43.8754 33.7603 43.7844 33.8857C43.6934 34.0111 43.6545 34.1669 43.6758 34.3203C44.0258 38.404 44.2192 42.5017 44.3894 46.5963C44.6029 51.729 44.7675 56.8634 44.8834 61.9996C45.0169 67.3326 45.1285 72.6661 45.2182 78C45.3006 82.6247 45.3782 87.2495 45.4508 91.8744C45.4697 92.9997 45.4799 94.1253 45.532 95.2496C45.5992 96.7024 45.6739 98.2209 45.0581 99.5779C44.5352 100.73 43.4668 101.797 42.1499 101.9C41.169 101.977 40.2473 101.286 39.895 100.432C39.8121 100.239 39.7705 100.031 39.773 99.8212C39.7754 99.6112 39.8218 99.4041 39.9091 99.2131C40.2125 98.5187 39.1111 98.1095 38.809 98.801Z" fill="#2F2E41"/>
<path d="M81.3556 45.3761L81.2913 45.4034C78.816 46.4545 76.328 47.4346 73.8965 48.3166C72.1663 48.9441 70.4589 49.5258 68.8219 50.0453C67.4422 50.4849 66.0657 50.8973 64.7304 51.2711C63.2428 51.6898 61.7505 52.0774 60.2951 52.4229C59.689 52.5696 59.0686 52.7126 58.4513 52.8481C57.3077 53.0994 56.196 53.3253 55.1473 53.5197C54.1317 53.7123 53.0976 53.8892 52.074 54.0455C52.0531 54.0505 52.032 54.0542 52.0106 54.0566C49.9383 54.3767 47.8667 54.6271 45.8552 54.8005C45.4662 54.8354 45.0778 54.867 44.6899 54.8955C33.0072 55.7573 21.9024 54.1864 11.6841 50.2263L11.6261 50.2039L11.6219 50.1419C11.0381 41.787 13.6018 33.5147 18.8089 26.9512C24.016 20.3878 31.4898 16.0081 39.7609 14.6733C40.7806 14.5098 41.8093 14.3918 42.8185 14.3225L45.5343 14.1347C47.0019 14.033 48.4745 14.0268 49.9428 14.1162C58.0728 14.6216 65.7407 18.0637 71.5187 23.8016C77.2967 29.5396 80.7909 37.1823 81.3508 45.3066L81.3556 45.3761Z" fill="#047AC8"/>
<path d="M18.2717 51.8484C22.7894 41.4412 28.615 31.6515 35.6078 22.7157C37.5691 20.2083 39.6185 17.7734 41.7559 15.4109C42.0089 15.1312 41.5274 14.7942 41.2761 15.0721C33.6318 23.5254 27.0975 32.9192 21.8316 43.0256C20.3592 45.8477 18.9892 48.7199 17.7216 51.6423C17.5708 51.9899 18.1214 52.1946 18.2717 51.8484Z" fill="#3F3D56"/>
<path d="M47.7956 14.1511C47.7905 14.2116 47.8049 14.272 47.8365 14.3238C47.8682 14.3755 47.9155 14.4158 47.9716 14.4388C50.5586 15.6007 53.013 17.0376 55.2923 18.7245C57.572 20.4112 59.6733 22.3264 61.5634 24.4402C63.459 26.5511 65.1393 28.8457 66.5796 31.29C68.0206 33.7333 69.2118 36.3154 70.1353 38.9975C70.9249 41.2911 71.5022 43.6524 71.8601 46.0517C71.9205 46.4543 71.9742 46.8578 72.0211 47.2623C72.0616 47.6116 72.0971 47.961 72.1276 48.3106C72.1618 48.6886 72.742 48.5925 72.7094 48.218C72.667 47.7556 72.6185 47.2938 72.5576 46.8334C72.2536 44.4435 71.7361 42.0857 71.0113 39.7884C70.1465 37.0483 69.0041 34.4038 67.6017 31.8961C66.1993 29.3836 64.5521 27.0159 62.684 24.8274C60.8184 22.641 58.7363 20.6489 56.4696 18.8816C54.1952 17.1067 51.7362 15.5818 49.135 14.3334C49.0162 14.2756 48.8956 14.2186 48.7758 14.1634L47.7956 14.1511Z" fill="#3F3D56"/>
<path d="M37.6368 54.8731L40.1244 40.3257L42.6119 25.7782L44.0121 17.5893C44.076 17.2157 43.4911 17.1585 43.4276 17.5295L40.9401 32.0769L38.4526 46.6244L37.0523 54.8133C36.9884 55.1869 37.5734 55.2441 37.6368 54.8731Z" fill="#3F3D56"/>
<path d="M59.8871 52.1474L55.2557 38.7658L50.6402 25.4304L48.0371 17.909C47.9135 17.552 47.3794 17.7975 47.5022 18.1522L52.1336 31.5338L56.749 44.8692L59.3522 52.3906C59.4758 52.7476 60.0098 52.5021 59.8871 52.1474Z" fill="#3F3D56"/>
<path d="M49.937 14.2139C49.952 15.3824 49.5645 16.5206 48.8395 17.4376C48.1145 18.3545 47.0961 18.9943 45.9554 19.2495C44.8146 19.5047 43.6209 19.3598 42.5747 18.8392C41.5285 18.3185 40.6935 17.4538 40.2099 16.3902C39.9758 15.8782 39.8294 15.3305 39.7767 14.77C40.7773 14.6096 41.7936 14.493 42.8254 14.4201L45.5413 14.2323C47.0046 14.1306 48.4729 14.1245 49.937 14.2139Z" fill="#3F3D56"/>
</svg>
